<svg xmlns="http://www.w3.org/2000/svg" version="1.1" xmlns:xlink="http://www.w3.org/1999/xlink" xmlns:svgjs="http://svgjs.dev/svgjs" width="1500" height="1500" viewBox="0 0 1500 1500"><rect width="1500" height="1500" fill="#ffffff"></rect><g transform="matrix(0.6666666666666666,0,0,0.6666666666666666,249.39393939393938,683.2740526163782)"><svg viewBox="0 0 396 53" data-background-color="#0b022d" preserveAspectRatio="xMidYMid meet" height="200" width="1500" xmlns="http://www.w3.org/2000/svg" xmlns:xlink="http://www.w3.org/1999/xlink"><g id="tight-bounds" transform="matrix(1,0,0,1,0.2400000000000091,0.023564084989715184)"><svg viewBox="0 0 395.52 52.952871830020555" height="52.952871830020555" width="395.52"><g><svg viewBox="0 0 395.52 52.952871830020555" height="52.952871830020555" width="395.52"><g><svg viewBox="0 0 395.52 52.952871830020555" height="52.952871830020555" width="395.52"><g id="textblocktransform"><svg viewBox="0 0 395.52 52.952871830020555" height="52.952871830020555" width="395.52" id="textblock"><g><svg viewBox="0 0 395.52 52.952871830020555" height="52.952871830020555" width="395.52"><g transform="matrix(1,0,0,1,0,0)"><svg width="395.52" viewBox="1.3985119047619046 -28.65 218.8314880952381 29.299999999999997" height="52.952871830020555" data-palette-color="#f7fff7"><path d="M14.55 0.65L14.55 0.65Q10.5 0.65 7.55-1.07 4.6-2.8 2.98-6.08 1.35-9.35 1.4-13.95L1.4-13.95Q1.4-18.6 3.05-21.9 4.7-25.2 7.78-26.93 10.85-28.65 15-28.65L15-28.65Q20.15-28.65 23.4-26.2 26.65-23.75 27.5-18.95L27.5-18.95 25.3-18.8Q24.75-21.45 23.35-23.15 21.95-24.85 19.85-25.68 17.75-26.5 15-26.5L15-26.5Q9.4-26.5 6.48-23.18 3.55-19.85 3.55-14.05L3.55-14.05Q3.55-8.1 6.58-4.78 9.6-1.45 14.95-1.45L14.95-1.45Q17.9-1.45 20.18-2.58 22.45-3.7 23.83-5.83 25.2-7.95 25.45-11L25.45-11 16.85-11 16.85-12.9 28.05-12.9 28.05 0 26.35 0 25.8-6.85 25.7-6.85Q25.45-5.8 24.68-4.5 23.9-3.2 22.58-2.02 21.25-0.85 19.28-0.1 17.3 0.65 14.55 0.65ZM35 0L32.75 0 32.75-20.3 34.7-20.3 35.05-14.45 35-10.1 35 0ZM35-9.8L35-9.8 34.85-14.2Q34.95-15.4 35.47-16.5 36-17.6 36.97-18.45 37.95-19.3 39.32-19.8 40.7-20.3 42.55-20.3L42.55-20.3 43.65-20.3 43.65-17.75 42.55-17.75Q40-17.75 38.47-17.13 36.95-16.5 36.2-15.43 35.45-14.35 35.22-12.9 35-11.45 35-9.8ZM54.95 0.5L54.95 0.5Q51.7 0.5 49.57-1.05 47.45-2.6 46.4-5.03 45.35-7.45 45.4-10.05L45.4-10.05Q45.4-12.75 46.5-15.1 47.6-17.45 49.72-18.88 51.85-20.3 54.9-20.3L54.9-20.3Q57.45-20.3 59.42-19.18 61.4-18.05 62.6-16.03 63.8-14 63.95-11.2L63.95-11.2Q64-10.95 64-10.6 64-10.25 64-9.95L64-9.95 47.6-9.95Q47.6-6.1 49.52-3.8 51.45-1.5 54.95-1.5L54.95-1.5Q57.5-1.5 59.37-2.85 61.25-4.2 61.7-6.5L61.7-6.5 63.95-6.5Q63.6-4.45 62.35-2.88 61.1-1.3 59.2-0.4 57.3 0.5 54.95 0.5ZM47.75-11.45L47.75-11.45 61.65-11.45Q61.6-12.4 61.22-13.58 60.85-14.75 60.05-15.85 59.25-16.95 57.97-17.65 56.7-18.35 54.9-18.35L54.9-18.35Q53.25-18.35 52-17.78 50.75-17.2 49.87-16.25 49-15.3 48.47-14.08 47.95-12.85 47.75-11.45ZM77.19 0.5L77.19 0.5Q73.94 0.5 71.82-1.05 69.69-2.6 68.64-5.03 67.59-7.45 67.64-10.05L67.64-10.05Q67.64-12.75 68.74-15.1 69.84-17.45 71.97-18.88 74.09-20.3 77.14-20.3L77.14-20.3Q79.69-20.3 81.67-19.18 83.64-18.05 84.84-16.03 86.04-14 86.19-11.2L86.19-11.2Q86.24-10.95 86.24-10.6 86.24-10.25 86.24-9.95L86.24-9.95 69.84-9.95Q69.84-6.1 71.77-3.8 73.69-1.5 77.19-1.5L77.19-1.5Q79.74-1.5 81.62-2.85 83.49-4.2 83.94-6.5L83.94-6.5 86.19-6.5Q85.84-4.45 84.59-2.88 83.34-1.3 81.44-0.4 79.54 0.5 77.19 0.5ZM69.99-11.45L69.99-11.45 83.89-11.45Q83.84-12.4 83.47-13.58 83.09-14.75 82.29-15.85 81.49-16.95 80.22-17.65 78.94-18.35 77.14-18.35L77.14-18.35Q75.49-18.35 74.24-17.78 72.99-17.2 72.12-16.25 71.24-15.3 70.72-14.08 70.19-12.85 69.99-11.45ZM92.69 0L90.39 0 90.39-20.3 92.29-20.3 92.69-14.9 92.79-14.9Q92.89-15.25 93.29-16.1 93.69-16.95 94.54-17.93 95.39-18.9 96.79-19.6 98.19-20.3 100.29-20.3L100.29-20.3Q102.39-20.3 103.77-19.7 105.14-19.1 106.02-18.07 106.89-17.05 107.34-15.73 107.79-14.4 107.94-12.95 108.09-11.5 108.09-10.05L108.09-10.05 108.09 0 105.84 0 105.84-10.05Q105.84-12.55 105.29-14.38 104.74-16.2 103.44-17.2 102.14-18.2 99.84-18.2L99.84-18.2Q97.39-18.2 95.82-17 94.24-15.8 93.47-13.85 92.69-11.9 92.69-9.6L92.69-9.6 92.69 0ZM133.29-1.15L142.04-28.15 144.49-28.15 143.24-25 135.14 0 131.34 0 122.69-28.15 125.14-28.15 133.29-1.15ZM152.94-1.15L161.44-28.15 163.94-28.15 154.84 0 151.09 0 143.24-25 142.09-28.15 144.49-28.15 152.94-1.15ZM174.83 0.5L174.83 0.5Q171.58 0.5 169.46-1.05 167.33-2.6 166.28-5.03 165.23-7.45 165.28-10.05L165.28-10.05Q165.28-12.75 166.38-15.1 167.48-17.45 169.61-18.88 171.73-20.3 174.78-20.3L174.78-20.3Q177.33-20.3 179.31-19.18 181.28-18.05 182.48-16.03 183.68-14 183.83-11.2L183.83-11.2Q183.88-10.95 183.88-10.6 183.88-10.25 183.88-9.95L183.88-9.95 167.48-9.95Q167.48-6.1 169.41-3.8 171.33-1.5 174.83-1.5L174.83-1.5Q177.38-1.5 179.26-2.85 181.13-4.2 181.58-6.5L181.58-6.5 183.83-6.5Q183.48-4.45 182.23-2.88 180.98-1.3 179.08-0.4 177.18 0.5 174.83 0.5ZM167.63-11.45L167.63-11.45 181.53-11.45Q181.48-12.4 181.11-13.58 180.73-14.75 179.93-15.85 179.13-16.95 177.86-17.65 176.58-18.35 174.78-18.35L174.78-18.35Q173.13-18.35 171.88-17.78 170.63-17.2 169.76-16.25 168.88-15.3 168.36-14.08 167.83-12.85 167.63-11.45ZM195.23 0.45L195.23 0.45Q192.43 0.45 190.58-0.95 188.73-2.35 187.83-4.73 186.93-7.1 186.93-10L186.93-10Q186.93-13.05 187.86-15.4 188.78-17.75 190.66-19.13 192.53-20.5 195.23-20.5L195.23-20.5Q196.73-20.5 197.88-20.1 199.03-19.7 199.93-19.05 200.83-18.4 201.46-17.57 202.08-16.75 202.43-15.8L202.43-15.8 202.48-15.8 202.48-20.3 204.83-20.3 204.83 0 202.93 0 202.53-4.2 202.43-4.2Q202.03-3.3 201.41-2.48 200.78-1.65 199.88-0.98 198.98-0.3 197.83 0.08 196.68 0.45 195.23 0.45ZM196.08-1.65L196.08-1.65Q198.23-1.65 199.66-2.65 201.08-3.65 201.78-5.53 202.48-7.4 202.48-9.95L202.48-9.95Q202.48-12.75 201.73-14.58 200.98-16.4 199.56-17.35 198.13-18.3 196.08-18.3L196.08-18.3Q193.73-18.3 192.21-17.2 190.68-16.1 189.96-14.25 189.23-12.4 189.23-10L189.23-10Q189.23-7.55 189.98-5.65 190.73-3.75 192.26-2.7 193.78-1.65 196.08-1.65ZM211.58 0L209.33 0 209.33-20.3 211.28-20.3 211.63-14.45 211.58-10.1 211.58 0ZM211.58-9.8L211.58-9.8 211.43-14.2Q211.53-15.4 212.05-16.5 212.58-17.6 213.55-18.45 214.53-19.3 215.9-19.8 217.28-20.3 219.13-20.3L219.13-20.3 220.23-20.3 220.23-17.75 219.13-17.75Q216.58-17.75 215.05-17.13 213.53-16.5 212.78-15.43 212.03-14.35 211.8-12.9 211.58-11.45 211.58-9.8Z" opacity="1" transform="matrix(1,0,0,1,0,0)" fill="#000000" class="wordmark-text-0" data-fill-palette-color="primary" id="text-0"></path></svg></g></svg></g></svg></g></svg></g></svg></g><defs></defs></svg><rect width="395.52" height="52.952871830020555" fill="none" stroke="none" visibility="hidden"></rect></g></svg></g></svg>